<svg width="130" height="263" viewBox="0 0 130 263" fill="none" xmlns="http://www.w3.org/2000/svg">
<path d="M69.3663 128.579L1.36963 56.7796C0.490154 55.8509 0 54.6205 0 53.3415V5.59552C0 1.06923 5.53433 -1.1277 8.63871 2.16626L127.783 128.587C129.592 130.506 129.599 133.501 127.799 135.428L47.2712 221.667L8.57459 261.233C5.44119 264.437 0 262.218 0 257.737V212.346C0 211.054 0.499578 209.813 1.39413 208.882L14.084 195.672C16.0215 193.655 19.2365 193.619 21.2181 195.592L37.1982 211.507C40.351 214.647 45.7264 212.414 45.7264 207.964V162.644C45.7264 161.374 46.21 160.151 47.079 159.224L69.3833 135.437C71.1933 133.507 71.1859 130.5 69.3663 128.579Z" fill="white"/>
</svg>
